# xmcd
#
# Track frame offsets: 
#        187
#        15187
#        27250
#        41262
#        54000
#        67770
#        79580
#        91137
#        102197
#        112807
#        123500
#        135307
#        144962
#        157197
#        172125
#        183540
#        192617
#        207307
#        219307
#        232762
#
# Disc length: 3281 seconds
#
# Revision: 0
# Processed by: cddbd v1.5.2PL0 Copyright (c) Steve Scherf et al.
# Submitted via: ExactAudioCopy v0.95b4
#
DISCID=f80ccf14
DTITLE=Various Artist - The Motown Memoirs
DYEAR=1987
DGENRE=R&B
TTITLE0=Bobby Taylor and The Vancouvers - I Am Your Man
TTITLE1=Mary Wells - Please Forgive Me
TTITLE2=Chuck Jackson - Are You Lonely For Me
TTITLE3=The Temptations - Just Let Me Know
TTITLE4=Barrett Strong - You Got What It Takes
TTITLE5=The Marvelettes - Someday, Someway
TTITLE6=Smokey Robinson and The Miracles - Choosey Beggar
TTITLE7=Smokey Robinson and The Miracles - Your Mother's Only Daughter
TTITLE8=Marvin Gaye - Forever
TTITLE9=Edwin Starr - My Weakness Is You
TTITLE10=Marv Johnson - I'll Pick A Rose For My Rose
TTITLE11=Marv Johnson - I'm Not A Plaything
TTITLE12=Eddie Holland - Baby Shake
TTITLE13=Jr Walker and The All Stars - Pucker Up Buttercup
TTITLE14=Shorty Long - Night Fo' Last (Single Stereo ver.)
TTITLE15=Gladys Knight and The Pips - Take Me in Your Arms and Love Me (
TTITLE15=Special Stereo Edition
TTITLE16=The Fantastic Four - I Feel Like I'm Falling In Love Again
TTITLE17=The Contours - It's So Hard Being A Loser
TTITLE18=Jimmy Ruffin - As Long As There Is L-O-V-E Love
TTITLE19=Sammy Turner - Only You
EXTD=
EXTT0=
EXTT1=
EXTT2=
EXTT3=
EXTT4=
EXTT5=
EXTT6=
EXTT7=
EXTT8=
EXTT9=
EXTT10=
EXTT11=
EXTT12=
EXTT13=
EXTT14=
EXTT15=
EXTT16=
EXTT17=
EXTT18=
EXTT19=
PLAYORDER=
